<svg width="800" height="800" viewBox="0 0 800 800" fill="none" xmlns="http://www.w3.org/2000/svg">
<circle cx="400" cy="400" r="400" fill="black"/>
<path d="M719.931 346.726C728.27 345.821 734.331 338.32 733.052 330.03C721.21 253.269 683.209 182.763 625.24 130.606C563.5 75.0561 483.446 44.2212 400.394 44.0012C317.342 43.7812 237.126 74.1917 175.092 129.414C116.848 181.263 78.4741 251.567 66.2248 328.264C64.902 336.547 70.9236 344.08 79.2575 345.029C87.5915 345.978 95.0786 339.982 96.4383 331.705C107.818 262.436 142.629 198.98 195.289 152.102C251.739 101.849 324.737 74.1759 400.313 74.3761C475.89 74.5763 548.74 102.636 604.923 153.187C657.335 200.343 691.809 263.983 702.821 333.311C704.137 341.595 711.592 347.631 719.931 346.726Z" fill="#C3A970"/>
<path d="M633.75 368C642.725 368 650.055 360.717 649.472 351.761C647.697 324.486 641.458 297.649 630.97 272.329C618.406 241.998 599.991 214.438 576.777 191.223C553.562 168.009 526.002 149.594 495.671 137.03C465.339 124.466 432.83 118 400 118C367.17 118 334.661 124.466 304.329 137.03C273.998 149.594 246.438 168.009 223.223 191.223C200.009 214.438 181.594 241.998 169.03 272.329C158.542 297.649 152.303 324.486 150.528 351.761C149.945 360.717 157.275 368 166.25 368C175.225 368 182.437 360.715 183.107 351.765C184.829 328.761 190.202 306.142 199.056 284.766C209.987 258.378 226.008 234.401 246.204 214.204C266.401 194.008 290.378 177.987 316.766 167.056C343.155 156.126 371.437 150.5 400 150.5C428.562 150.5 456.845 156.126 483.234 167.056C509.622 177.987 533.599 194.008 553.796 214.204C573.992 234.401 590.013 258.378 600.944 284.766C609.798 306.142 615.171 328.761 616.893 351.765C617.563 360.715 624.775 368 633.75 368Z" fill="#C3A970"/>
<rect x="19" y="286" width="760.01" height="113.067" fill="black"/>
<path d="M90.4222 372.934L77.3502 330.374H77.0462C77.0969 331.387 77.1729 332.907 77.2742 334.934C77.3756 336.96 77.4769 339.139 77.5782 341.47C77.6796 343.75 77.7302 345.827 77.7302 347.702V372.934H67.4702V318.67H83.1262L95.9702 360.166H96.1982L109.802 318.67H125.458V372.934H114.742V347.246C114.742 345.523 114.768 343.547 114.818 341.318C114.92 339.088 114.996 336.986 115.046 335.01C115.148 332.983 115.224 331.463 115.274 330.45H114.97L100.986 372.934H90.4222ZM172.378 372.934L168.426 360.014H148.666L144.714 372.934H132.326L151.478 318.442H165.538L184.766 372.934H172.378ZM161.738 337.746C161.484 336.884 161.155 335.795 160.75 334.478C160.344 333.16 159.939 331.818 159.534 330.45C159.128 329.082 158.799 327.891 158.546 326.878C158.292 327.891 157.938 329.158 157.482 330.678C157.076 332.147 156.671 333.566 156.266 334.934C155.911 336.251 155.632 337.188 155.43 337.746L151.554 350.362H165.69L161.738 337.746ZM207.446 318.67C212.361 318.67 216.414 319.278 219.606 320.494C222.798 321.659 225.18 323.458 226.75 325.89C228.321 328.271 229.106 331.286 229.106 334.934C229.106 337.416 228.625 339.595 227.662 341.47C226.75 343.294 225.509 344.864 223.938 346.182C222.418 347.448 220.772 348.487 218.998 349.298L234.958 372.934H222.19L209.27 352.11H203.114V372.934H191.638V318.67H207.446ZM206.61 328.094H203.114V342.762H206.838C209.372 342.762 211.424 342.483 212.994 341.926C214.565 341.368 215.705 340.532 216.414 339.418C217.124 338.252 217.478 336.859 217.478 335.238C217.478 333.515 217.073 332.147 216.262 331.134C215.502 330.07 214.312 329.31 212.69 328.854C211.12 328.347 209.093 328.094 206.61 328.094ZM285.434 372.934H272.362L258.15 350.058L253.286 353.554V372.934H241.81V318.67H253.286V343.522C254.046 342.458 254.806 341.394 255.566 340.33C256.326 339.266 257.086 338.202 257.846 337.138L272.514 318.67H285.282L266.358 342.686L285.434 372.934ZM323.515 372.934H292.279V318.67H323.515V328.094H303.755V340.026H322.147V349.45H303.755V363.434H323.515V372.934ZM355.706 372.934H344.23V328.246H329.486V318.67H370.45V328.246H355.706V372.934ZM416.842 318.67C421.656 318.67 425.684 319.126 428.926 320.038C432.22 320.899 434.677 322.343 436.298 324.37C437.97 326.346 438.806 329.031 438.806 332.426C438.806 334.452 438.477 336.302 437.818 337.974C437.16 339.646 436.197 341.014 434.93 342.078C433.714 343.142 432.22 343.826 430.446 344.13V344.51C432.27 344.864 433.917 345.498 435.386 346.41C436.856 347.322 438.021 348.639 438.882 350.362C439.744 352.084 440.174 354.364 440.174 357.202C440.174 360.495 439.364 363.332 437.742 365.714C436.172 368.044 433.892 369.843 430.902 371.11C427.913 372.326 424.366 372.934 420.262 372.934H399.97V318.67H416.842ZM418.134 340.178C421.478 340.178 423.784 339.646 425.05 338.582C426.368 337.518 427.026 335.972 427.026 333.946C427.026 331.868 426.266 330.374 424.746 329.462C423.226 328.55 420.82 328.094 417.526 328.094H411.446V340.178H418.134ZM411.446 349.298V363.434H418.97C422.416 363.434 424.822 362.775 426.19 361.458C427.558 360.09 428.242 358.291 428.242 356.062C428.242 354.694 427.938 353.503 427.33 352.49C426.773 351.476 425.785 350.691 424.366 350.134C422.948 349.576 421.022 349.298 418.59 349.298H411.446ZM482.269 372.934H451.033V318.67H482.269V328.094H462.509V340.026H480.901V349.45H462.509V363.434H482.269V372.934ZM541.668 372.934H527.076L503.44 331.894H503.136C503.187 333.16 503.237 334.452 503.288 335.77C503.339 337.036 503.389 338.328 503.44 339.646C503.541 340.912 503.617 342.204 503.668 343.522C503.719 344.788 503.769 346.08 503.82 347.398V372.934H493.56V318.67H508.076L531.636 359.33H531.864C531.813 358.063 531.763 356.822 531.712 355.606C531.661 354.339 531.611 353.098 531.56 351.882C531.56 350.615 531.535 349.374 531.484 348.158C531.433 346.891 531.383 345.624 531.332 344.358V318.67H541.668V372.934ZM600.376 345.27C600.376 351.35 599.211 356.442 596.88 360.546C594.55 364.65 591.155 367.74 586.696 369.818C582.288 371.895 576.968 372.934 570.736 372.934H555.384V318.67H572.408C578.083 318.67 582.998 319.683 587.152 321.71C591.358 323.736 594.6 326.726 596.88 330.678C599.211 334.579 600.376 339.443 600.376 345.27ZM588.444 345.574C588.444 341.571 587.862 338.278 586.696 335.694C585.531 333.11 583.783 331.21 581.452 329.994C579.172 328.727 576.36 328.094 573.016 328.094H566.86V363.434H571.8C577.424 363.434 581.604 361.939 584.34 358.95C587.076 355.96 588.444 351.502 588.444 345.574ZM642.878 372.934H611.642V318.67H642.878V328.094H623.118V340.026H641.51V349.45H623.118V363.434H642.878V372.934ZM669.977 318.67C674.892 318.67 678.945 319.278 682.137 320.494C685.329 321.659 687.711 323.458 689.281 325.89C690.852 328.271 691.637 331.286 691.637 334.934C691.637 337.416 691.156 339.595 690.193 341.47C689.281 343.294 688.04 344.864 686.469 346.182C684.949 347.448 683.303 348.487 681.529 349.298L697.489 372.934H684.721L671.801 352.11H665.645V372.934H654.169V318.67H669.977ZM669.141 328.094H665.645V342.762H669.369C671.903 342.762 673.955 342.483 675.525 341.926C677.096 341.368 678.236 340.532 678.945 339.418C679.655 338.252 680.009 336.859 680.009 335.238C680.009 333.515 679.604 332.147 678.793 331.134C678.033 330.07 676.843 329.31 675.221 328.854C673.651 328.347 671.624 328.094 669.141 328.094ZM736.337 357.886C736.337 361.078 735.552 363.864 733.981 366.246C732.411 368.627 730.131 370.476 727.141 371.794C724.203 373.06 720.605 373.694 716.349 373.694C714.475 373.694 712.625 373.567 710.801 373.314C709.028 373.06 707.305 372.706 705.633 372.25C704.012 371.743 702.467 371.135 700.997 370.426V359.71C703.581 360.824 706.241 361.863 708.977 362.826C711.764 363.738 714.525 364.194 717.261 364.194C719.136 364.194 720.631 363.94 721.745 363.434C722.911 362.927 723.747 362.243 724.253 361.382C724.811 360.52 725.089 359.532 725.089 358.418C725.089 357.05 724.608 355.884 723.645 354.922C722.733 353.959 721.492 353.072 719.921 352.262C718.351 351.4 716.552 350.488 714.525 349.526C713.259 348.918 711.891 348.208 710.421 347.398C708.952 346.536 707.533 345.498 706.165 344.282C704.848 343.015 703.759 341.495 702.897 339.722C702.036 337.948 701.605 335.82 701.605 333.338C701.605 330.095 702.34 327.334 703.809 325.054C705.329 322.723 707.457 320.95 710.193 319.734C712.98 318.518 716.248 317.91 719.997 317.91C722.835 317.91 725.52 318.239 728.053 318.898C730.637 319.556 733.323 320.494 736.109 321.71L732.385 330.678C729.903 329.664 727.673 328.879 725.697 328.322C723.721 327.764 721.695 327.486 719.617 327.486C718.199 327.486 716.983 327.714 715.969 328.17C714.956 328.626 714.171 329.259 713.613 330.07C713.107 330.88 712.853 331.843 712.853 332.958C712.853 334.224 713.233 335.314 713.993 336.226C714.753 337.087 715.893 337.923 717.413 338.734C718.933 339.544 720.833 340.507 723.113 341.622C725.9 342.939 728.256 344.307 730.181 345.726C732.157 347.144 733.677 348.816 734.741 350.742C735.805 352.667 736.337 355.048 736.337 357.886Z" fill="white"/>
<path d="M77.1875 413.5C68.7997 413.5 61.9644 420.303 62.3417 428.683C64.104 467.819 72.6691 506.39 87.6907 542.656C104.652 583.603 129.512 620.809 160.851 652.149C192.191 683.488 229.397 708.348 270.344 725.309C311.292 742.27 355.179 751 399.5 751C443.821 751 487.708 742.27 528.656 725.309C569.603 708.348 606.809 683.488 638.149 652.149C669.488 620.809 694.348 583.603 711.309 542.656C726.331 506.39 734.896 467.819 736.658 428.683C737.036 420.303 730.2 413.5 721.812 413.5C713.425 413.5 706.664 420.304 706.25 428.681C704.51 463.827 696.741 498.452 683.247 531.032C667.812 568.294 645.189 602.151 616.67 630.67C588.151 659.189 554.294 681.812 517.032 697.246C479.77 712.681 439.832 720.625 399.5 720.625C359.168 720.625 319.23 712.681 281.968 697.247C244.706 681.812 210.849 659.189 182.33 630.67C153.811 602.151 131.188 568.294 115.753 531.032C102.259 498.452 94.4898 463.827 92.7504 428.681C92.3358 420.304 85.5753 413.5 77.1875 413.5Z" fill="#C3A970"/>
<path d="M162.619 401.254C153.646 400.764 145.919 407.645 146.014 416.63C146.314 445.172 151.501 473.492 161.387 500.354C173.15 532.312 191.319 561.53 214.778 586.216C238.237 610.902 266.492 630.535 297.81 643.91C329.128 657.285 362.848 664.121 396.902 663.998C430.957 663.875 464.627 656.796 495.847 643.195C527.068 629.594 555.181 609.758 578.461 584.904C601.741 560.049 619.698 530.7 631.23 498.658C640.922 471.726 645.904 443.368 645.999 414.826C646.028 405.84 638.252 399.014 629.283 399.569C620.314 400.124 613.557 407.851 613.44 416.836C613.126 440.948 608.802 464.878 600.611 487.638C590.58 515.51 574.961 541.038 554.711 562.658C534.461 584.277 510.007 601.531 482.851 613.362C455.694 625.193 426.407 631.35 396.785 631.457C367.163 631.564 337.832 625.618 310.591 613.984C283.349 602.349 258.772 585.272 238.366 563.8C217.961 542.327 202.158 516.912 191.926 489.113C183.571 466.413 179.075 442.514 178.586 418.406C178.404 409.421 171.591 401.744 162.619 401.254Z" fill="#C3A970"/>
<rect x="227" y="414" width="30" height="50" rx="15" fill="#C3A970"/>
<rect x="305" y="414" width="30" height="100" rx="15" fill="#C3A970"/>
<rect x="381" y="414" width="30" height="150" rx="15" fill="#C3A970"/>
<rect x="461" y="414" width="30" height="100" rx="15" fill="#C3A970"/>
<rect x="539" y="414" width="30" height="50" rx="15" fill="#C3A970"/>
<circle cx="395.5" cy="268.5" r="17.5" fill="#74644A"/>
</svg>
